<?xml version="1.0" encoding="UTF-8"?>
<!DOCTYPE svg PUBLIC "-//W3C//DTD SVG 1.1//EN" "http://www.w3.org/Graphics/SVG/1.1/DTD/svg11.dtd">
<svg xmlns="http://www.w3.org/2000/svg" xml:space="preserve" width="7.87402in" height="1.76909in" version="1.1" style="shape-rendering:geometricPrecision; text-rendering:geometricPrecision; image-rendering:optimizeQuality; fill-rule:evenodd; clip-rule:evenodd"
viewBox="0 0 7267 1633"
 xmlns:xlink="http://www.w3.org/1999/xlink">
 <defs>
  <style type="text/css">
   <![CDATA[
    .fil0 {fill:#002F87}
   ]]>
  </style>
 </defs>
 <g id="Layer_x0020_1">
  <g id="_1462319575616">
   <path class="fil0" d="M9 1607l135 0 0 -607c0,-183 78,-401 325,-401 188,0 261,134 261,341l0 667 135 0 0 -702c0,-241 -103,-422 -374,-422 -228,0 -310,123 -355,222l-5 0 0 -196 -131 0c9,88 9,174 9,258l0 840z"/>
   <path class="fil0" d="M1589 980c0,-180 122,-381 323,-381 202,0 279,190 279,381l-602 0zm669 455c-64,41 -209,81 -308,81 -237,0 -361,-187 -361,-419l751 0 0 -69c0,-295 -127,-545 -437,-545 -278,0 -463,239 -463,575 0,329 136,575 499,575 102,0 224,-22 319,-61l0 -137z"/>
   <polygon class="fil0" points="3199,498 2915,498 3138,1028 2661,1607 2988,1607 3303,1183 3465,1607 3763,1607 3512,1028 3960,498 3633,498 3336,879 "/>
   <path class="fil0" d="M5149 509l-136 0 0 607c0,183 -77,400 -325,400 -187,0 -260,-133 -260,-340l0 -667 -136 0 0 702c0,241 103,422 375,422 228,0 310,-123 355,-222l4 0 0 196 131 0c-8,-88 -8,-175 -8,-258l0 -840z"/>
   <path class="fil0" d="M7267 1607l0 -756c0,-213 -125,-368 -347,-368 -172,0 -301,103 -351,233l-4 0c-34,-192 -194,-233 -290,-233 -235,0 -300,138 -343,213l-4 -2 0 -185 -131 0c8,88 8,174 8,258l0 840 136 0 0 -607c0,-274 146,-401 295,-401 174,0 232,123 232,278l0 730 136 0 0 -607c0,-274 146,-401 295,-401 174,0 232,123 232,278l0 730 136 0z"/>
   <path class="fil0" d="M3262 225c-23,124 45,226 150,226 105,0 210,-102 233,-226 22,-124 -46,-225 -152,-225 -105,0 -209,101 -231,225z"/>
  </g>
 </g>
</svg>
